<svg id="SvgjsSvg1001" width="288" height="288" xmlns="http://www.w3.org/2000/svg" version="1.1" xmlns:xlink="http://www.w3.org/1999/xlink" xmlns:svgjs="http://svgjs.com/svgjs"><defs id="SvgjsDefs1002"></defs><g id="SvgjsG1008" transform="matrix(0.9167,0,0,0.9167,11.995200635528562,11.995205719757081)"><!--?xml version="1.0" encoding="UTF-8"?--><svg xmlns="http://www.w3.org/2000/svg" xmlns:xlink="http://www.w3.org/1999/xlink" version="1.1" id="Layer_1" x="0px" y="0px" viewBox="0 0 29 29" xml:space="preserve" width="288" height="288"><style type="text/css">.st0{fill:none;stroke:#000000;stroke-width:2;stroke-miterlimit:10;} .st1{fill:none;stroke:#000000;stroke-width:2;stroke-linecap:round;stroke-linejoin:round;stroke-miterlimit:10;} .st2{fill:none;stroke:#000000;stroke-miterlimit:10;} .st3{fill:none;stroke:#000000;stroke-width:2;stroke-miterlimit:10;stroke-dasharray:1.7411,1.7411;} .st4{fill:none;stroke:#000000;stroke-width:2;stroke-linecap:round;stroke-linejoin:round;stroke-dasharray:2.0261,4.0522;} .st5{fill:#606060;} .st6{stroke:#000000;stroke-miterlimit:10;}</style><path d="M19.795 27H9.205a2.99 2.99 0 0 1-2.985-2.702L4.505 7.099A.998.998 0 0 1 5.5 6h18a1 1 0 0 1 .995 1.099L22.78 24.297A2.991 2.991 0 0 1 19.795 27zM6.604 8L8.21 24.099a.998.998 0 0 0 .995.901h10.59a.998.998 0 0 0 .995-.901L22.396 8H6.604z" fill="#ef4c45" class="color000 svgShape"></path><path d="M26 8H3a1 1 0 1 1 0-2h23a1 1 0 1 1 0 2z" fill="#ef4c45" class="color000 svgShape"></path><path d="M14.5 23a1 1 0 0 1-1-1V11a1 1 0 1 1 2 0v11a1 1 0 0 1-1 1z" fill="#ef4c45" class="color000 svgShape"></path><path d="M10.999 23a1 1 0 0 1-.995-.91l-1-11a1 1 0 0 1 .905-1.086 1.003 1.003 0 0 1 1.087.906l1 11a1 1 0 0 1-.997 1.09z" fill="#ef4c45" class="color000 svgShape"></path><path d="M18.001 23a1 1 0 0 1-.997-1.09l1-11c.051-.55.531-.946 1.087-.906a1 1 0 0 1 .905 1.086l-1 11a1 1 0 0 1-.995.91z" fill="#ef4c45" class="color000 svgShape"></path><path d="M19 8h-9a1 1 0 0 1-1-1V3a1 1 0 0 1 1-1h9a1 1 0 0 1 1 1v4a1 1 0 0 1-1 1zm-8-2h7V4h-7v2z" fill="#ef4c45" class="color000 svgShape"></path><metadata><rdf:rdf xmlns:rdf="http://www.w3.org/1999/02/22-rdf-syntax-ns#" xmlns:rdfs="http://www.w3.org/2000/01/rdf-schema#" xmlns:dc="http://purl.org/dc/elements/1.1/"><rdf:description about="https://iconscout.com/legal#licenses" dc:title="delete,recycle,bin,waste,trash" dc:description="delete,recycle,bin,waste,trash" dc:publisher="Iconscout" dc:date="2017-10-03" dc:format="image/svg+xml" dc:language="en"><dc:creator><rdf:bag><rdf:li>Jemis Mali</rdf:li></rdf:bag></dc:creator></rdf:description></rdf:rdf></metadata></svg></g></svg>