<svg id="SvgjsSvg1001" width="288" height="288" xmlns="http://www.w3.org/2000/svg" version="1.1" xmlns:xlink="http://www.w3.org/1999/xlink" xmlns:svgjs="http://svgjs.com/svgjs"><defs id="SvgjsDefs1002"></defs><g id="SvgjsG1008" transform="matrix(0.9167,0,0,0.9167,11.995198728942881,11.995201271057141)"><svg xmlns="http://www.w3.org/2000/svg" data-name="Layer 1" viewBox="0 0 64 64" width="288" height="288"><path d="M26.32,32.39h3.79v3.79a1.89,1.89,0,1,0,3.78,0V32.39h3.79a1.89,1.89,0,1,0,0-3.78H33.89V24.82a1.89,1.89,0,1,0-3.78,0v3.79H26.32a1.89,1.89,0,1,0,0,3.78Z" fill="#ef4c45" class="color000 svgShape"></path><path d="M46.67,9.11H40.34A7.68,7.68,0,0,0,32.7,2H31.3a7.68,7.68,0,0,0-7.64,7.11H17.33a7.41,7.41,0,0,0-7.41,7.4V54.59A7.41,7.41,0,0,0,17.33,62H46.67a7.41,7.41,0,0,0,7.41-7.41V16.51A7.41,7.41,0,0,0,46.67,9.11ZM31.3,5.79h1.4a3.9,3.9,0,0,1,3.84,3.32H27.46A3.9,3.9,0,0,1,31.3,5.79Zm-5.77,7.1h18a5.23,5.23,0,0,1-4.86,3.32H25.32a5.23,5.23,0,0,1-4.86-3.32Zm24.76,41.7a3.62,3.62,0,0,1-3.62,3.62H17.33a3.62,3.62,0,0,1-3.62-3.62V16.51A3.62,3.62,0,0,1,16.54,13a9,9,0,0,0,8.78,7H38.68a9,9,0,0,0,8.78-7,3.62,3.62,0,0,1,2.83,3.53Z" fill="#ef4c45" class="color000 svgShape"></path><path d="M42.13 41H21.87a1.9 1.9 0 1 0 0 3.79H42.13a1.9 1.9 0 1 0 0-3.79zM42.13 51.74H21.87a1.9 1.9 0 1 0 0 3.79H42.13a1.9 1.9 0 1 0 0-3.79z" fill="#ef4c45" class="color000 svgShape"></path></svg></g></svg>