<svg xmlns="http://www.w3.org/2000/svg" width="64" height="64" enable-background="new 0 0 64 64" viewBox="0 0 64 64"><path fill="#2C2E63" d="M49.555,17.19c-2.39-0.68-4.79-1.22-7.18-1.63V6.57c1.5-0.32,2.64-1.65,2.64-3.25
		c0-1.83-1.49-3.32-3.32-3.32h-19.39c-1.83,0-3.32,1.49-3.32,3.32c0,1.6,1.13,2.93,2.64,3.25v8.95c-2.42,0.41-4.83,0.96-7.22,1.67
		c-1.23,0.36-2.08,1.51-2.08,2.8v39.13c0,2.69,2.18,4.88,4.87,4.88h29.6c2.69,0,4.88-2.19,4.88-4.88V20.01
		C51.675,18.7,50.805,17.55,49.555,17.19z M20.925,3.32c0-0.76,0.62-1.38,1.38-1.38h19.39c0.76,0,1.38,0.62,1.38,1.38
		s-0.62,1.38-1.38,1.38h-19.39C21.545,4.7,20.925,4.08,20.925,3.32z M40.435,6.64v8.62c-5.67-0.79-11.3-0.8-16.87-0.04V6.64H40.435z
		 M49.735,59.12c0,1.62-1.32,2.94-2.94,2.94h-29.6c-1.62,0-2.93-1.32-2.93-2.94v-3.74h35.47V59.12z M49.735,53.44h-35.47V25.2h35.47
		V53.44z M49.735,23.26h-35.47v-3.27c0-0.43,0.28-0.82,0.69-0.94c5.53-1.64,11.16-2.46,16.85-2.46c5.7,0,11.45,0.83,17.22,2.47
		c0.42,0.12,0.71,0.51,0.71,0.95V23.26z"/><path fill="#B6D9E6" d="M43.075,3.32c0,0.76-0.62,1.38-1.38,1.38h-19.39c-0.76,0-1.38-0.62-1.38-1.38s0.62-1.38,1.38-1.38h19.39
		C42.455,1.94,43.075,2.56,43.075,3.32z"/><path fill="#EDC35E" d="M40.435,6.64v8.62c-5.67-0.79-11.3-0.8-16.87-0.04V6.64H40.435z"/><path fill="#FFDC7C" d="M49.735,55.38v3.74c0,1.62-1.32,2.94-2.94,2.94h-29.6c-1.62,0-2.93-1.32-2.93-2.94v-3.74H49.735z"/><path fill="#EDC35E" d="M49.735,55.38v3.74c0,1.62-1.32,2.94-2.94,2.94h-29.6c-1.62,0-2.93-1.32-2.93-2.94v-3.74h2.22v2.58
		c0,1.12,1.14,2.04,2.56,2.04h25.9c1.42,0,2.57-0.92,2.57-2.04v-2.58H49.735z"/><path fill="#FFDC7C" d="M49.735,20.01v3.25h-35.47v-3.27c0-0.43,0.28-0.82,0.69-0.94c5.53-1.64,11.16-2.46,16.85-2.46
		c5.7,0,11.45,0.83,17.22,2.47C49.445,19.18,49.735,19.57,49.735,20.01z"/><path fill="#B6D9E6" d="M14.265,25.2v28.24h35.47V25.2H14.265z M40.105,47.43c-2.23,2.23-5.17,3.35-8.11,3.35
		c-2.93,0-5.87-1.12-8.1-3.35c-4.48-4.47-4.48-11.75,0-16.22c4.47-4.47,11.74-4.47,16.21,0C44.575,35.68,44.575,42.96,40.105,47.43z
		"/><rect width="2.22" height="28.24" x="14.265" y="25.2" fill="#A0C3D8"/><path fill="#EDC35E" d="M16.485,18.62v4.64h-2.22v-3.27c0-0.43,0.28-0.82,0.69-0.94C15.465,18.9,15.975,18.76,16.485,18.62z"/><rect width="2.22" height="28.24" x="47.515" y="25.2" fill="#A0C3D8"/><path fill="#EDC35E" d="M49.735,20.01v3.25h-2.22v-4.61c0.5,0.13,1.01,0.27,1.51,0.41C49.445,19.18,49.735,19.57,49.735,20.01z"/><path fill="#2C2E63" d="M40.105,31.21c-4.47-4.47-11.74-4.47-16.21,0c-4.48,4.47-4.48,11.75,0,16.22c2.23,2.23,5.17,3.35,8.1,3.35
		c2.94,0,5.88-1.12,8.11-3.35C44.575,42.96,44.575,35.68,40.105,31.21z M25.265,46.06c-3.49-3.49-3.7-9.02-0.65-12.76l13.4,13.41
		C34.275,49.76,28.745,49.54,25.265,46.06z M39.385,45.34l-13.4-13.41c1.74-1.42,3.88-2.13,6.01-2.13c2.44,0,4.88,0.93,6.74,2.78
		C42.215,36.07,42.435,41.6,39.385,45.34z"/><path fill="#F26E61" d="M38.015 46.71c-3.74 3.05-9.27 2.83-12.75-.65-3.49-3.49-3.7-9.02-.65-12.76L38.015 46.71zM39.385 45.34l-13.4-13.41c1.74-1.42 3.88-2.13 6.01-2.13 2.44 0 4.88.93 6.74 2.78C42.215 36.07 42.435 41.6 39.385 45.34z"/><path fill="#E15E5A" d="M38.015 46.71c-3.74 3.05-9.27 2.83-12.75-.65-3.49-3.49-3.7-9.02-.65-12.76l1.24 1.24c-2.37 3.05-2.17 7.48.64 10.29 2.81 2.8 7.23 3.01 10.28.64L38.015 46.71zM39.385 45.34l-1.24-1.24c2.37-3.05 2.16-7.47-.64-10.29-1.52-1.51-3.52-2.27-5.51-2.27-1.68 0-3.38.54-4.77 1.63l-1.24-1.24c1.74-1.42 3.88-2.13 6.01-2.13 2.44 0 4.88.93 6.74 2.78C42.215 36.07 42.435 41.6 39.385 45.34z"/></svg>